<svg xmlns="http://www.w3.org/2000/svg" viewBox="0 0 132.2 123.24"><defs><style>.cls-1{fill:#fff;}</style></defs><title>Recurso 6</title><g id="Capa_2" data-name="Capa 2"><g id="Capa_3" data-name="Capa 3"><path class="cls-1" d="M7.11,118.55c-.25-.3,0,.06-.2-.29a4.8,4.8,0,0,1-.3-.65A9.18,9.18,0,0,1,6.16,116a23.84,23.84,0,0,1-.36-4.54A73,73,0,0,1,7.09,98.94a116.28,116.28,0,0,1,8.62-28.81,36.11,36.11,0,0,1,6.22-10c.26-.27.54-.54.81-.8-.29.27,0,0,.14-.11l.47-.37.41-.29c.41-.3,0,0,0,0l.42-.23c.57-.33-.39.18-.06,0,.79-.38-.61.13.2-.06-.31.07-.73.13-.23.07-.36,0-.54,0-.06,0l.46.07a7.81,7.81,0,0,1,1,.25,14.82,14.82,0,0,1,2.31.92,12.45,12.45,0,0,1,3.64,2.67,3.82,3.82,0,0,1,.85,1.35,2.23,2.23,0,0,1,.09.85c0,.37-.37.73-.41,1-.11,1,2.1-1.32,2.35-.6l-.16-.06a3.47,3.47,0,0,1-.34-.3,5.73,5.73,0,0,1-1-1.42,19.54,19.54,0,0,1-1.62-4.38,23.14,23.14,0,0,1,4-19.35,30,30,0,0,1,7.51-7.4,21.79,21.79,0,0,1,4.25-2.29A15.31,15.31,0,0,1,51,28.68a11.58,11.58,0,0,1,8.55,2.69c1.87,1.46,4.78,4.35,3.59,7a3.15,3.15,0,0,1-.54.82s-.32.28-.38.37l0,0c-.45.41.11.31,1.66-.31,0,0-.09,0-.19-.05a3.36,3.36,0,0,1-.6-.34,8.41,8.41,0,0,1-2.38-2.69,15.8,15.8,0,0,1-2.27-8.73,8,8,0,0,1,3.76-6.59,8.4,8.4,0,0,1,1.13-.46c-.26.08.56-.15.67-.18s.49-.11.15,0,.33-.06.4-.07l.92-.14a1.71,1.71,0,0,1,.44,0q.9-.07,1.8-.09h.76c.45,0-.29,0,.26,0l1.19.07c.6.05,1.19.13,1.78.21.42.05.83.11,1.24.18l.49.08.33.06c.38.07-.18,0,.06,0a21,21,0,0,1,2.43.7c5.21,1.89,9.57,6,13.52,9.77,5,4.69,9.84,9.86,16.22,12.6,3.32,1.43,6.83,1.65,10.39,1.69a27.67,27.67,0,0,0,7.41-.87c3-.78,6.28-2.21,7.78-5.06s.39-6.16-1.23-8.58a10.65,10.65,0,0,0-9.09-4.9,18.81,18.81,0,0,0-5.12.53c-.31.08.11,0,.18,0,.34.08.34-.06.78.2.12.07-.05.12,0,.11s0,.09,0,.09.21-.21.22-.22c-.3.22.28-.21.39-.3,2.56-2,4.73-4.31,5.21-7.66s-.41-6.91-3.46-8.64-7.28-1.44-10.63-.41a18.09,18.09,0,0,0-5.15,2.41,12.39,12.39,0,0,0-2,1.73c-.3.33-.57.67-.84,1-.89,1.12-.83.45,1.23-.12l2.13-.22-.12,0,.87.3s-.07-.23-.06-.57c0-.54.15-1.09.21-1.62A13.29,13.29,0,0,0,105,7.57a10.59,10.59,0,0,0-5.08-6.3C94.75-1.61,88.49.66,85.63,5.56a22.16,22.16,0,0,0-2.2,15.3c1,4.22,3.86,7.38,6.52,10.62a48.14,48.14,0,0,1,7.74,13.41,35.89,35.89,0,0,1,2.63,17.21,28.91,28.91,0,0,1-6.64,14.73,31.61,31.61,0,0,1-6.2,5.86c-1.7,1.21-4,2.68-5.94,2.86-2.75.25-5.68-1-8-2.47a22.74,22.74,0,0,1-6.3-5.79,13.06,13.06,0,0,1-2.74-6.66c0-.42.5-.39-.18,0-.49.27-2.16.6-2.18.72H62c.15,0,.3,0,.45.06l.22.06A10.35,10.35,0,0,1,66,73.18,14,14,0,0,1,71.33,88.9c-1.33,4.26-4.59,7.6-7.85,10.49a74.37,74.37,0,0,1-11.64,8.41c-.94.55-1.88,1.07-2.84,1.57q-.72.39-1.47.75l-.7.33c-.77.36.49-.21-.25.12l-1.3.53-.61.23c-.06,0-.72.24-.2.07s-.54.14-.7.19c-.61.19.72-.2.13,0-.1,0-.77.09-.22,0s-.09,0-.13,0h-.68c.51,0-.25,0-.29,0-.24,0-.47,0-.7-.06a11.68,11.68,0,0,1-2.59-.58,12.41,12.41,0,0,1-5-3.32,17.18,17.18,0,0,1-3.76-7.07,8,8,0,0,1-.07-4.73,2.8,2.8,0,0,1,.22-.46c-.37-.44-.94,1.83-1.58.51,0,0,.79.24.95.32A10.39,10.39,0,0,1,33.32,99a13.37,13.37,0,0,1,3.54,7.35,14,14,0,0,1-1.72,7.89A10.11,10.11,0,0,1,33,117c.25-.22-.42.3-.53.38s-.64.4-.16.12c-.25.15-.51.29-.77.42l-.52.26c-.42.2.62-.25-.09,0-.47.19-.93.36-1.4.53-.8.3.61-.17-.23.08l-.51.16c-.61.17-1.23.34-1.86.48-.05,0-1,.21-.32.08l-.56.11c-.57.11-1.14.21-1.72.3l-1.6.23-1.48.16c-1.06.09-2.13.15-3.2.18s-2.29,0-3,0c-.93,0-1.86-.1-2.78-.21a20,20,0,0,1-2.3-.38,5.25,5.25,0,0,1-2.89-1.36c-1.12-1.23-6.59.82-5.43,2.09s3,1.61,4.47,1.93a38.74,38.74,0,0,0,7.52.67,54.33,54.33,0,0,0,17.5-2.6,20.29,20.29,0,0,0,6.54-3.35,14.27,14.27,0,0,0,4.69-8.16,12.23,12.23,0,0,0-1.29-8.89c-1.77-2.95-4.26-6.26-7.86-6.94-3.19-.61-8.28.68-8.82,4.43a12.92,12.92,0,0,0,1.25,7.15,15.29,15.29,0,0,0,12.64,9.34c5.11.54,9.81-1.42,14.25-3.76a80.48,80.48,0,0,0,15.11-10.3c4.28-3.72,8.7-8.09,9.83-13.88a14.69,14.69,0,0,0-1.4-10,16.48,16.48,0,0,0-8-7.06,8.79,8.79,0,0,0-4.45-.54c-1.56.22-3.61.79-4.56,2.17-1.53,2.25,1.08,6.1,2.32,7.9,4.17,6.11,11.67,10.35,19.17,9.35,7.32-1,14.1-6.17,18.61-11.79a30.09,30.09,0,0,0,7.1-19.25c0-6.67-2.22-13.32-5.25-19.22a46.39,46.39,0,0,0-5.5-8.24,49,49,0,0,1-4.63-6c-3.06-5.26-2.72-12.27-.22-17.68a9.27,9.27,0,0,1,2.21-3.21c.07-.06.55-.49.3-.23,0-.05.4-.16.11-.06s-.49.15-.75.22c-.69.17-.12,0,.25.11a5.88,5.88,0,0,1,1,.35,9.14,9.14,0,0,1,5.55,8.08c0,1.53-.5,3.08-.38,4.59.15,1.85,3,1.21,4.09.83,2.08-.69,2.73-2.24,4.24-3.63a6.12,6.12,0,0,1,1.27-.9,4.56,4.56,0,0,1,1.5-.57c-.41.1.55-.09.51-.08a7.19,7.19,0,0,1,1,0,6.12,6.12,0,0,1,1.84.4,5.51,5.51,0,0,1,3.06,3.06A8.92,8.92,0,0,1,115.08,24a25.94,25.94,0,0,1-2.62,2.28c-.6.51-1.75,1.51-.89,2.33s3,.42,4.06.25a9.87,9.87,0,0,1,4.36-.07c3,.88,5.25,3.89,6.06,6.79a6.35,6.35,0,0,1,0,4.15,4.12,4.12,0,0,1-2,2.13c.39-.2-.2.07-.32.12-.47.2.27-.05-.4.12-.19.05-1,.22-.39.11l-1,.17c-.13,0-.9.1-.62.08s-.46,0-.55,0c-.45,0-.9,0-1.36.05h-1.56c-.53,0,.4,0,.09,0-.74,0-1.49-.05-2.22-.12-.39,0-.77-.08-1.15-.14l-.59-.1-.08,0-.27-.06a20.24,20.24,0,0,1-2.6-.85,29.23,29.23,0,0,1-6.44-3.91c-9-6.88-16.1-17.78-28-19.67-8.88-1.41-23.64.06-23.9,11.71a16.11,16.11,0,0,0,2.36,8.54c1.26,2.08,3,3.93,5.53,4.1,3.48.22,8.87-2.2,8.71-6.33-.1-2.71-2.61-5.19-4.64-6.67a15.71,15.71,0,0,0-9.79-3.11,29.74,29.74,0,0,0-11,2.57A33.93,33.93,0,0,0,27.81,42.79a23.71,23.71,0,0,0-2.08,18.89c.71,2.26,1.86,5.47,4.54,5.9,2.89.46,9.48-1.61,7.67-5.75-1.13-2.6-4.35-4.29-6.84-5.25a12.18,12.18,0,0,0-7.68-.41,16.24,16.24,0,0,0-8.56,6.33C9.44,69.8,6.43,79,4.07,87.66,1.76,96.11-.21,105.16,0,114c.06,2.21.17,4.89,1.66,6.67C2.73,121.89,8.25,119.9,7.11,118.55Z"/></g></g></svg>