<svg xmlns="http://www.w3.org/2000/svg" viewBox="0 0 101.45 104.32"><defs><style>.cls-1{fill:#fff;}</style></defs><title>Recurso 11</title><g id="Capa_2" data-name="Capa 2"><g id="Capa_3" data-name="Capa 3"><g id="Capa_5" data-name="Capa 5"><path class="cls-1" d="M3.4,4.41C7.2,3.23,10.91,3.85,13.56,7c2,2.46,3.19,5.54,5.31,7.94A14.48,14.48,0,0,0,26,19.13c5.15,1.42,10.68,1.56,16,1.61,9.51.1,19-.4,28.53-1,3.62-.24,7.23-.53,10.85-.75,1.36-.08,2.72-.16,4.08-.2l.87,0h.3q.86,0,1.71,0c.46,0,.91,0,1.36.1l.63.07c.5.05.44.08.15,0,.36.09.72.15,1.08.25s1.22.5.57.17c.28.15.56.27.83.44l.38.25.18.13c.33.24-.34-.33-.06,0A7.14,7.14,0,0,1,94.92,22c1.52,3.28.34,7.36-.53,10.64-1,4-2.17,8-3.59,11.83A27.42,27.42,0,0,1,85.37,54a13.07,13.07,0,0,1-3.88,2.88c-.35.16-.69.31-1,.44.54-.2-.38.11-.56.16-.36.1-.72.19-1.08.26.55-.11.07,0,0,0l-.84.1a11.29,11.29,0,0,1-1.91.05q-1.35-.06-2.7-.24a55.83,55.83,0,0,1-5.74-1.09,143.38,143.38,0,0,1-14.11-3.83,70.44,70.44,0,0,0-10.23-3.09,24.89,24.89,0,0,0-11.69.72A31.06,31.06,0,0,0,20,56.86a35.08,35.08,0,0,0-7.09,9.44c-2.37,4.32-4.69,8.92-5.77,13.75-.48,2.1-.85,5,.9,6.64,2.33,2.21,5.86.74,8.54.15.49-.11-.42.06.1,0l.63-.1q.69-.09,1.38-.12a16.5,16.5,0,0,1,2.63.14l.8.1.45.07c-.42-.07,0,0,.08,0a18.21,18.21,0,0,1,2.51.67,9.83,9.83,0,0,1,6.15,6.28,5.4,5.4,0,0,1-.88,5.37A3.24,3.24,0,0,1,27,100.47c-3.7-.75-5.61-5.27-4-8.53a10,10,0,0,1,.52-.9c.11-.17.6-.77.12-.21.23-.27.45-.54.7-.79l.38-.35c-.27.23.09-.06.2-.13l.44-.28c.38-.24-.37.17.05,0s.67-.31,1-.44-.41.12.07,0l.59-.17c.46-.13.93-.24,1.41-.34,1.74-.37,4.33-.63,6.41-.86,2.26-.26,4.52-.51,6.78-.71a117.14,117.14,0,0,1,24.48.12c3.86.46,8.66,1.13,11.91,2.56a11.93,11.93,0,0,1,1.42.74c.19.12.37.25.55.38s.31.25,0-.05l.26.24a7.07,7.07,0,0,1,.68.77l.27.39c.05.09.24.46.1.18a6.91,6.91,0,0,1,.53,5.32,6.17,6.17,0,0,1-1.18,2,4.45,4.45,0,0,1-.75.69c-.15.11-.67.33-.4.26-1.34.34-3.11-1.18-3.77-2.43a6.12,6.12,0,0,1,.38-5.62A8.06,8.06,0,0,1,77,90.9c.22-.25.45-.48.69-.72,0-.05.37-.33,0-.06a6,6,0,0,1,.5-.38c.28-.2.56-.38.85-.56s-.37.19,0,0l.47-.23c.31-.16.64-.3,1-.43l.49-.19c.34-.13-.43.12.13,0s1.37-.41,2.07-.57l1-.22c-.64.12.56-.08.77-.11,1.31-.19,2.64-.3,4-.36l.85,0c.39,0-.54,0-.15,0h.37c.43,0,.86,0,1.29,0s.94,0,1.4.06a4.14,4.14,0,0,0,3.8-1.68c.67-1.23-.58-2-1.67-2.07A38.48,38.48,0,0,0,79.74,85c-3.39,1.17-6.73,3-8.66,6.14-2.42,3.94-2.32,9,1.87,11.67,4.52,2.87,10.58.8,13.47-3.36a9,9,0,0,0,0-10.23c-1.37-2-3.77-3-6-3.75a64,64,0,0,0-14.4-2.63A136,136,0,0,0,39,83.31c-7.62.81-18.93.83-22,9.58-1.53,4.4,1.07,9,5.23,10.66a12,12,0,0,0,13.81-4.11c2.43-3.43,1.42-7.72-.93-10.88-2.48-3.33-6.49-4.79-10.45-5.41A28.29,28.29,0,0,0,13.31,84c-.37.1-.88.14-.2.07a1.34,1.34,0,0,1-.35,0c-.57-.09.54,0,.17,0s.53.1.21,0c0,0,.11.24.06,0,0,0-.4-.39,0,0a1.43,1.43,0,0,1-.3-.35c0-.07-.17-.31,0,0a2,2,0,0,1-.12-.31,5.06,5.06,0,0,1-.17-.67,5,5,0,0,1,0-1.64c.54-5,3.17-9.88,5.56-14.25,2-3.63,4.25-7.13,7.6-9.65a21,21,0,0,1,10.46-4.25,17.57,17.57,0,0,1,4.37.29,44.38,44.38,0,0,1,5.1,1.46c4.6,1.55,9.15,3.07,13.87,4.23,8.11,2,17.27,4.56,25.15.36S95.9,46.83,98.33,38.68c1.29-4.32,3-8.84,3.11-13.39.1-2.79-.53-5.7-2.69-7.64-3.23-2.9-8.1-2.75-12.17-2.65-7.77.2-15.52,1-23.28,1.45-8.87.47-17.86.92-26.74.23-1.34-.1-2.69-.24-4-.44-.23,0-.88-.14-.31,0l-.81-.15c-.52-.11-1.05-.22-1.56-.36a22,22,0,0,1-2.38-.77c-.29-.1.54.26.14.06l-.22-.1L27,14.67c-.31-.16-.62-.33-.92-.52s-.48-.33-.72-.5-.15-.13,0,0L25,13.33a12.3,12.3,0,0,1-1.36-1.53c-2.35-3.07-3.66-6.72-6.77-9.19C12.81-.57,7.15-.48,2.48,1,1.47,1.27-.29,2.12,0,3.46s2.43,1.23,3.36,1Z"/></g></g></g></svg>