<svg xmlns="http://www.w3.org/2000/svg" viewBox="0 0 103.89 99.36"><defs><style>.cls-1{fill:#fff;}</style></defs><title>Recurso 8</title><g id="Capa_2" data-name="Capa 2"><g id="Capa_3" data-name="Capa 3"><g id="Capa_2-2" data-name="Capa 2"><path class="cls-1" d="M91.55,79.68A51.69,51.69,0,0,0,81.11,81c-3.74.84-7.73,2.2-10.68,4.72C67.78,88,66,91.82,67.78,95.21c2.1,4,7.63,4.78,11.57,3.71s8.52-4,7.85-8.8c-.57-4.15-5-7-8.51-8.55A25.42,25.42,0,0,0,68.13,79.8L58,79.83l-20.78.08A30.86,30.86,0,0,0,29.36,81c-3.73,1-7.68,2.38-10.72,4.85s-4.42,6.15-2.38,9.7c1.92,3.36,6.33,3.95,9.8,3.21,4-.85,9.16-3.31,9-8.07-.15-4.38-3.66-7.64-7.41-9.36a18.11,18.11,0,0,0-6.22-1.58c-1.4-.1-3.72.25-4.47-1.31-.84-1.75.95-4.32,1.63-6,2.35-5.66,4.56-11.39,6.81-17.1A10.51,10.51,0,0,1,25.93,54l-5.76.86c-.42,1.44,3.64,1,4.41,1,2.85-.12,5.7-.27,8.56-.42,8.75-.46,17.49-1,26.24-1.48q12.24-.7,24.48-1.44c2.17-.13,4.34-.24,6.51-.39,3.57-.25,7.85-1.68,9.23-5.36a23.68,23.68,0,0,0,.89-4.11c1.26-7.08,2.38-14.22,3.32-21.36.21-1.59.07-3.38-1.31-4.44a6.09,6.09,0,0,0-2.79-1c-1.8-.29-3.6-.52-5.41-.77-7-1-14.11-1.88-21.16-2.8L46.59,8.84Q35.47,7.39,24.37,5.92,21.21,5.5,18.05,5c-.46-.07-.93-.19-1.39-.22-.27,0,.38.12.37.09a11.24,11.24,0,0,0-1.47-.71c-1.21-.79-2.13-1.94-3.37-2.71C9.75,0,6.84,0,4.07,0,2.86,0,1,.45.22,1.49S.9,2.85,1.7,2.85c2.45,0,4.41.08,6.33,1.7,1.53,1.29,3,2.67,5,3.07,1.28.25,2.6.4,3.89.58,6.21.86,12.42,1.66,18.63,2.47L61.1,14q11.73,1.53,23.46,3.07l8,1.09c1.34.19,2.73.3,4.06.6l.16,0c-.34-.1,0,0,.14.1a2.74,2.74,0,0,1,.63.55,3.93,3.93,0,0,1,.55,2.17,17.5,17.5,0,0,1-.24,1.77Q97,29,96.18,34.62c-.6,3.85-1.15,7.72-2,11.53a7.09,7.09,0,0,1-.67,2.12c-.11.17-1,1-1,1,0-.1.6-.07,0-.06-.84,0-1.69.1-2.53.15L69.18,50.65q-13.31.78-26.61,1.53c-5.75.32-11.52.71-17.28.87H24.6a.88.88,0,0,0-.23,0c.4-.11,1.78.2,1.56,1,.34-1.16-1.83-1-2.42-.93a4.5,4.5,0,0,0-3.34,1.79,29.64,29.64,0,0,0-1.57,4q-1.67,4.25-3.35,8.49c-1,2.41-1.91,4.82-2.94,7.2-.74,1.72-2,3.79-1,5.67.82,1.57,2.8,2.06,4.43,2.22a24,24,0,0,1,5.47.73C24.64,84.3,28,86.7,29,90.36c.43,1.62.47,3.49-.82,4.74-.13.13-.72.55-.59.47l-.47.26c-.73.39.29-.11-.16.07-.29.12-1.19.28-.4.17a7.28,7.28,0,0,1-.76.11c.53,0,.17,0-.15,0l-.65-.1a6,6,0,0,1-1.48-.62,5.37,5.37,0,0,1-2.28-4,5.09,5.09,0,0,1,1-4,8.56,8.56,0,0,1,3.07-2.32l.48-.24.19-.09c.37-.15.74-.31,1.12-.45s.66-.24,1-.36c.55-.21.08,0,0,0l.72-.22c.66-.2,1.33-.39,2-.55l.79-.19.36-.08c.6-.14-.67.13-.14,0a30.1,30.1,0,0,1,5.29-.2l9.31,0q9.64,0,19.31-.06A19.25,19.25,0,0,1,74,84.13c3.09,1.36,6.89,3.9,7.4,7.55a4.73,4.73,0,0,1-1.72,4.38,2.41,2.41,0,0,1-.58.33c.66-.33-.86.29-.28.11.27-.09-.25,0-.26,0a4.55,4.55,0,0,1-.73-.09c-.58-.09.38.12-.24,0-3.17-.85-5.32-3.44-4.53-6.85a6.63,6.63,0,0,1,1.74-3.09,7.15,7.15,0,0,1,.73-.61c.16-.12.32-.24.49-.35.38-.26-.49.28.2-.12.29-.17.58-.33.89-.49l.46-.23c-.52.24.26-.1.3-.11L79,84.12c.08,0,.62-.2.25-.09s.42-.12.4-.11c.78-.23,1.57-.43,2.36-.6l.66-.13L83.83,83c.74-.11,1.48-.2,2.22-.28l.47,0c-.6.06-.09,0,.06,0l1-.07,1.65-.07c1.22,0,3.09-.43,3.85-1.49s-.67-1.38-1.48-1.36Z"/><path class="cls-1" d="M15.43,5.92a12,12,0,0,0-3.35,10.34c.43,2.79,1,5.56,1.6,8.33,1.65,8.17,3.39,16.32,5.14,24.46q.66,3.11,1.33,6.19c.54,2.49,6.35,1,5.79-1.55q-1.7-7.89-3.37-15.79c-1.55-7.31-3.18-14.63-4.49-22a11.21,11.21,0,0,1-.19-3.7,9.62,9.62,0,0,1,1.45-3.75l.19-.27c-.12.16-.15.19,0,0l.35-.42c.11-.12.22-.25.35-.37a1.51,1.51,0,0,0-.7-2.59,4.3,4.3,0,0,0-4.09,1.1Z"/></g></g></g></svg>