<svg xmlns="http://www.w3.org/2000/svg" viewBox="0 0 137.57 123.73"><title>Recurso 16</title><g id="Capa_2" data-name="Capa 2"><g id="Capa_3" data-name="Capa 3"><g id="Capa_5" data-name="Capa 5"><path d="M132.48,55.14c-3,2.71-4.73,6.34-6.48,10q-2.93,6-5.66,12.11Q114.81,89.53,110,102.13c-1.48,3.88-2.75,7.85-4.36,11.68-1,2.35-2.6,5.87-5.08,6.82-1.58.61-3.68.25-5.33.16l-7-.35-14.19-.71L46,118.31,32,117.6c-2.31-.12-4.65-.14-7-.37-2-.19-2.85-1.36-3.48-3.16-3-8.58-5.56-17.38-8-26.14S8.82,70.19,6.78,61.24c-.45-1.93-1.53-4.6-.63-6.51a3,3,0,0,1,.94-1.14A4,4,0,0,1,8.44,53C10,52.61,12,52.32,14,52c2.25-.38,4.52-.75,6.78-1.1q6.91-1.06,13.87-1.9c4.12-.49,8.55-1.2,12.63,0,3.24.93,6.41,3,7.73,6.26a8.14,8.14,0,0,1-1.68,8.83,6.48,6.48,0,0,1-.73.53c-.28.18-.07.06,0,0s-.22.07-.25.08c.36-.06-.25,0-.28,0a4.28,4.28,0,0,1-1-.09,6.17,6.17,0,0,1-3.55-2.19,10.45,10.45,0,0,1-1.83-5.23c-.27-2.09-.37-4.21-.43-6.32C44.76,35.43,48.9,18.64,61.37,8.52a31,31,0,0,1,8.49-5A7.86,7.86,0,0,1,75,3.11,9.68,9.68,0,0,1,79.17,5.9c2.63,2.79,4.19,6.53,5.25,10.16a50.36,50.36,0,0,1,1.83,11.83A121,121,0,0,1,86,40.38a69.31,69.31,0,0,1-1.32,11.76c-.82,3.45-2.28,7-5.17,9.25a9.25,9.25,0,0,1-1.79,1.12l-.59.23c.46-.17-.86.23-.4.13a5.89,5.89,0,0,1-3.53-.43A1.9,1.9,0,0,1,72,60.81a7.78,7.78,0,0,1-.13-2.5,10.41,10.41,0,0,1,1.64-4.4A11.16,11.16,0,0,1,81.13,49c4-.68,8.12-.36,12.14-.24l14.11.43,13.62.42a5.15,5.15,0,0,0,3.85-1.49c.79-1.09-.69-1.32-1.48-1.35-10.35-.31-20.71-.66-31.07-1-8.6-.23-19.39.56-24.45,8.67a11.54,11.54,0,0,0-1.82,5c-.15,1.66-.16,4,1.42,4.89,3.58,2.12,8.11,1.61,11.86.22a16.85,16.85,0,0,0,8.87-7.39c2.24-3.89,2.92-8.42,3.28-12.83.73-8.84,1.37-18.06-.47-26.8C89.33,9.67,85-.15,75.52,0,70.79.08,66,2.05,62,4.4A41.6,41.6,0,0,0,52.46,12,48.41,48.41,0,0,0,41,34.36a69.29,69.29,0,0,0-1.6,14c0,2.33,0,4.67.16,7a24.54,24.54,0,0,0,.94,6.33c2.91,8.56,15.81,7,19.69.1a9.6,9.6,0,0,0-.75-10.42c-2.4-3.3-6.49-5-10.42-5.57-5.11-.74-10.36.1-15.44.74S23.37,47.9,18.28,48.72c-4.6.75-9.71,1.12-13.95,3.22A7.86,7.86,0,0,0,.4,55.59c-.95,2.16,0,4.81.53,7q3.41,15,7.63,29.73,2.08,7.26,4.35,14.47c.78,2.48,1.57,4.95,2.39,7.42.64,1.93,1.23,4,3.15,5s4.51.89,6.69,1l7.72.39,15.67.79L79.88,123c5.16.26,10.35.71,15.51.75,4.69,0,9.45-1.33,12.61-5,2.54-2.94,3.78-6.75,5.09-10.34q2.56-7.07,5.36-14.06Q124,80.53,130.41,67c1-2.13,2-4.27,3.1-6.36a17.14,17.14,0,0,1,3.51-5c.83-.74.74-1.51-.45-1.68a5.71,5.71,0,0,0-4.09,1.1Z"/></g></g></g></svg>