<svg xmlns="http://www.w3.org/2000/svg" viewBox="0 0 104.09 124.66"><title>Recurso 23</title><g id="Capa_2" data-name="Capa 2"><g id="Capa_7" data-name="Capa 7"><path d="M73.3.14C67.59.51,61.86.72,56.14,1s-11.35.8-17,1.36c-7.89.78-15.79,1.37-23.69,2.09-3.8.35-8.07.5-11.59,2.14A6.2,6.2,0,0,0,.74,9.36c-1.34,2.93.83,5.94,2.87,7.91A26.26,26.26,0,0,0,15,23.82c3.69,1,9.22,1.92,12.55-.57,3.93-2.94-1.67-6.56-4.18-7.85a23.35,23.35,0,0,0-13-2.52c-4.15.43-9,2.27-10.13,6.73-.69,2.68.45,5,.93,7.58.87,4.63.83,9.28,1,13.93.32,9.5.48,19,.67,28.52.17,8.24.43,16.51.08,24.75A61.45,61.45,0,0,1,2.22,102a25.29,25.29,0,0,1-.63,2.87c-.07.22-.13.44-.2.65.16-.51,0,.12-.1.27a28.52,28.52,0,0,0-1,3,10.06,10.06,0,0,0,3.92,10.81,23.91,23.91,0,0,0,9.51,3.79,62.52,62.52,0,0,0,8.84,1.15c5.1.31,10.06-.39,15.1-1,9.25-1.19,18.59-1.89,27.91-2.3,8.79-.39,17.79-.74,26.27-3.36,4-1.25,8.45-3.16,10.17-7.36,1.54-3.75,0-7.55-.37-11.35a92.75,92.75,0,0,1-.36-9.58c0-4.74,0-9.48.16-14.22.09-2.65.17-4.94-1.31-7.24C98,64.76,93.7,63.56,91,60.69a14.74,14.74,0,0,1-3.16-5.11,18.31,18.31,0,0,0-2.75-5.16A22.48,22.48,0,0,0,74.5,43.49a31.29,31.29,0,0,0-24.08,2C43,49.31,37,56.08,35.8,64.58c-.95,7,1.67,14.18,6.17,19.54,4.21,5,10.66,7.78,17,8.84,6.61,1.11,14.94.48,20.34-3.93a11.48,11.48,0,0,0,4.29-9.2c0-3.5-1.12-7.9-4.53-9.62a7.94,7.94,0,0,0-3.52-.82c-.8,0-2,.32-2.67-.21-1.09-.88-1-2.86-.94-4.11a13.59,13.59,0,0,0,0-4.27c-.65-2.24-3.57-2.12-5.29-1.34a8.47,8.47,0,0,0-2.3,1.64l-.75.74-.39.38c-.44.43.13-.12-.26.24a2.55,2.55,0,0,0-.39.28c.18-.31,2-.46,2.32-.37.08,0,.39.27.49.29-.06,0-.23-.42-.15-.18a13.66,13.66,0,0,1-.38-1.7c-.39-2.73-.11-6.87-3.62-7.53a5.91,5.91,0,0,0-3.58.53c-.43.2-.83.47-1.25.7.39-.21,0,0,0,0,0,.28-.44,0,.13,0-1.06-.11-2-1.12-3-1.81-1.73-1.16-5.56-.61-5.88,1.86-.18,1.34,1,2.79,1.36,4a4.11,4.11,0,0,1,.27,2.29c-.2.77-.46.74-1,1.17-1.25.91-2.41,2.44-1.11,3.82a6.88,6.88,0,0,0,3.53,1.54c.85.2,1.72.36,2.58.52.49.09.93.17,1.76.37a12.89,12.89,0,0,1,1.64.48c.41.16,0,0-.07,0a1.06,1.06,0,0,1,.27.15c.2.36,0-.31,0,0a.71.71,0,0,1,.1.14l-.14-.26a3.56,3.56,0,0,0,.1-.47c0,.37.13-.1,0,0s.33-.26,0,0c-.13.1-.26.2-.4.29-.63.44-1.3.82-1.92,1.28-1.17.88-2.81,2.6-1.53,4.09,1.07,1.24,3.15,1.2,4.64,1.38a6.56,6.56,0,0,1,4.64,2.15c1.14,1.47,1.06,3.45,1.58,5.16,1.4,4.55,6.52,5.77,10.75,5.38s9-2.31,11.42-6.18c1.77-2.91,2-6.48,4.1-9.25A21.07,21.07,0,0,1,94,69a20.49,20.49,0,0,0,4.46-4.74c2.79-4.23,2.83-9.69,3-14.58.27-6.83-.17-13.69-.41-20.52a19.37,19.37,0,0,0-.18-3.05,8.38,8.38,0,0,1-.35-1.71,7.66,7.66,0,0,1,.67-2.7c.62-1.68.78-3-.22-4.61-2.12-3.35-6.82-5.21-10.38-6.44A33.13,33.13,0,0,0,78.32,8.84,63.52,63.52,0,0,0,67.76,10a40.22,40.22,0,0,0-7,2.21c-2,.85-5.79,2.23-6.11,4.81-.18,1.41,1.07,2.29,2.2,2.81a22.38,22.38,0,0,0,7.66,1.79,45.86,45.86,0,0,0,13.14-1.39c4.63-1,9.21-2.31,13.83-3.4,2.76-.66,5.6-1.18,8.29-2.11,1.8-.63,4.19-1.67,4.35-3.88.14-1.77-1.3-3.15-2.56-4.17A21.54,21.54,0,0,0,97.12,4C89.71.57,81.39-.4,73.3.14c-1.21.08-3,.86-3.22,2.23s1.59,1.78,2.63,1.71C73.3,4,73.89,4,74.49,4l1.22,0c.61,0,.49,0,1.3,0a46.46,46.46,0,0,1,7.45.76,39.55,39.55,0,0,1,4.13,1c.76.23,1.51.49,2.26.76l.91.36c.13,0,1.33.57.95.39a15.36,15.36,0,0,1,4.75,3,8.7,8.7,0,0,1,.62.77,1.45,1.45,0,0,1,.13.58s0,.11,0,.13c-.08-.17.22-.57.06-.26s.27-.35.24-.32-.22.39,0,0,.23-.2,0-.07-.39.2.08,0,0,0-.17,0c-.81.29.41-.1,0,0s-.63.2-1,.3c-4.23,1.2-8.57,2.05-12.83,3.13-4.72,1.19-9.47,2.61-14.34,3a21.94,21.94,0,0,1-7.7-.6,11.36,11.36,0,0,1-1.59-.51c-.19-.08-.35-.19-.53-.28-.43-.22,0,0-.06,0s-.2-.51-.07-.05,0,0,0,0c0-.17,0,.71-.2.65.05,0,1-.58,1-.62a31.29,31.29,0,0,1,7.64-2.58l.46-.09.36-.06,1-.14c.88-.1,1.77-.16,2.66-.24,4.76-.4,8.55-.5,13.1,1a26.18,26.18,0,0,1,7,3.3,8.11,8.11,0,0,1,2,1.78c.41.55.6.88.49,1.42-.2.95-.67,1.83-.93,2.77a7.46,7.46,0,0,0,.06,4,8.5,8.5,0,0,1,.16,1c.06.52,0-.34,0-.06s0,.32,0,.49c0,.48,0,.95,0,1.43.06,1.64.11,3.28.16,4.92.14,4.43.39,8.85.29,13.28-.07,2.93-.24,5.86-.57,8.78a13.35,13.35,0,0,1-2.92,7.51A30.6,30.6,0,0,1,88,68.29,17.76,17.76,0,0,0,83,74.78c-.76,1.74-1.18,3.61-1.95,5.35a5.73,5.73,0,0,1-3.46,3.37,8,8,0,0,1-5.48.24C70,83,69.5,81.2,69.12,79.2c-.5-2.63-1.62-4.91-4.06-6.26a17.65,17.65,0,0,0-6.7-1.71,4.37,4.37,0,0,0-.7-.1c.22,0,.33.19.09,0,.4.32.13-.25.37.23s.15.11.05.84c0-.35-.15.09,0,0,.36-.2-.53.36.09,0,.42-.29.85-.57,1.28-.85,1.32-.86,3.49-2.36,2.85-4.24-.51-1.47-2.42-2-3.76-2.38-.89-.22-1.79-.39-2.69-.56l-1.24-.24-.3-.06-.68-.15c-.35-.08-.69-.17-1-.28l-.36-.12-.17-.06c.29.14.33.15.11,0A2.77,2.77,0,0,1,52,63.1c.44.55.12.11.09,0a1,1,0,0,1,.16.54c-.77.91-.94,1.18-.48.81l.28-.19c2.12-1.48,3.34-3.45,2.92-6.09a11.42,11.42,0,0,0-.95-2.78c-.16-.36-.34-.71-.49-1.08a1.81,1.81,0,0,0-.13-.35c-.35-.59.9-.64-.48.88l-1.15.82.07,0-1.54.41h.09L49,55.93c.27.06-.34-.38-.1,0a3.33,3.33,0,0,0,.46.36c.33.26.65.53,1,.77a8,8,0,0,0,3.73,1.43,8.69,8.69,0,0,0,4.6-.8l.59-.31.64-.37c.29-.17.29-.17,0,0,.55,0-.12,0-.17,0A2.23,2.23,0,0,1,58.08,57c-.19-.19-.2-.2,0,0,0,0,.25.43.29.58.1.37.19.74.26,1.13.18,1,.25,2,.36,3.08.2,1.71.56,3.62,2.38,4.28,2.72,1,5.22-.87,7-2.67.13-.13.89-.94.61-.62.33-.38.5-.08.05-.1H66.42a.46.46,0,0,1-.28-.3c0-.12,0,0,0,.19,0,0,.07.59,0,.25a10,10,0,0,1,0,1.45c-.13,2.19-.34,4.53.74,6.52A5,5,0,0,0,69.61,73c1.41.52,2.79.26,4.24.33,2,.1,3,2.28,3.44,4a11.62,11.62,0,0,1,0,6.56,9.45,9.45,0,0,1-.63,1.37s-.49.74-.15.27a4,4,0,0,1-.26.32,10.72,10.72,0,0,1-.8.85c-.31.29.49-.37-.07.05-.22.16-.42.32-.64.46l-.49.32c-.63.41.53-.22-.18.1-.37.16-.73.36-1.11.52l-.71.28c.11,0,.57-.18,0,0s-1,.31-1.55.43c-.26.07-.54.12-.81.18-.87.2.36,0-.18,0s-1,.15-1.58.2a23.45,23.45,0,0,1-2.86.12,27.31,27.31,0,0,1-6.54-.93,23.31,23.31,0,0,1-10.57-5.87C42.67,77,40,68.44,42.36,60.8a20.84,20.84,0,0,1,8.46-11A22.39,22.39,0,0,1,62.75,45.9a23.73,23.73,0,0,1,13.54,3.81A14.86,14.86,0,0,1,81.16,55c1,2,1.53,4.21,2.83,6.12a21.64,21.64,0,0,0,6.61,6,30.12,30.12,0,0,1,2.56,1.65,7,7,0,0,1,1,1,7.31,7.31,0,0,1,.48.62c.08.11.67,1.15.46.71a6,6,0,0,1,.57,3c0,2.68-.14,5.36-.17,8,0,5.22-.14,10.45.15,15.66a43.47,43.47,0,0,0,.46,4.7c.4,2.47,1.32,5.07.44,7.54-.8,2.22-2.53,3.09-4.41,3.8.57-.21-.2.07-.33.11l-.92.3q-.94.28-1.89.54c-1.43.38-2.88.7-4.33,1a124.63,124.63,0,0,1-16.13,1.49q-17.22.74-34.29,2.93A54.82,54.82,0,0,1,20,120.2c-3.62-.47-7.59-1.23-10.81-3.42a7.29,7.29,0,0,1-3.27-4.88c-.39-2.37.58-4.59,1.29-6.79a34.26,34.26,0,0,0,1.37-7.86c.79-9.87.29-19.89.09-29.78C8.45,56.6,8.34,45.71,7.8,34.85c-.14-2.76-.26-5.53-.66-8.27s-2.31-5.93-.6-8.38c-.06.1.7-.66.44-.46,0,0,.78-.48.32-.23l.53-.25c.82-.36-.51.08.39-.14L9,16.93c.58-.12-.7.08.32-.05q.66-.09,1.32-.12a16.58,16.58,0,0,1,6.3,1,13.86,13.86,0,0,1,6.11,4c-.22-.27.18.18.07.23s.06-.45.08-.48a2.72,2.72,0,0,1,.8-.75c.84-.56.22.1.06-.05l-.11,0c.39-.07.4-.08,0,0s-.57.06-.86.07a14.82,14.82,0,0,1-1.59-.09,21.25,21.25,0,0,1-13.3-6.61,8.68,8.68,0,0,1-1.75-2.5A3.46,3.46,0,0,1,6.3,9.65c0,.56-.15.43,0,.16a1.81,1.81,0,0,0,.17-.29c0,.1-.45.56-.09.17s-.55.45-.16.13a1.94,1.94,0,0,0,.29-.21c.14-.14-.77.36-.22.15a4.28,4.28,0,0,0,.44-.2c.37-.2-.92.27-.12,0,.39-.11.76-.22,1.15-.31l.63-.13c.26-.06.64-.25-.25,0a3.21,3.21,0,0,1,.43-.07c3-.46,5.93-.71,8.9-1,4.74-.4,9.47-.78,14.2-1.2,6.83-.62,13.64-1.42,20.49-1.83s13.73-.61,20.59-1.06c1.2-.08,3-.86,3.22-2.23S74.34.07,73.3.14Z"/></g></g></svg>