<svg xmlns="http://www.w3.org/2000/svg" viewBox="0 0 100 100"><title>Recurso 27</title><g id="Capa_2" data-name="Capa 2"><g id="Capa_10" data-name="Capa 10"><circle cx="75.91" cy="24.4" r="6.21"/><path d="M50,24.39A25.61,25.61,0,1,0,75.6,50,25.62,25.62,0,0,0,50,24.39Zm0,40.84A15.23,15.23,0,1,1,65.23,50,15.23,15.23,0,0,1,50,65.23Z"/><path d="M69.4,0H30.6A30.6,30.6,0,0,0,0,30.6V69.4A30.6,30.6,0,0,0,30.6,100H69.4A30.6,30.6,0,0,0,100,69.4V30.6A30.6,30.6,0,0,0,69.4,0ZM89.76,70.36a19.41,19.41,0,0,1-19.4,19.4H29.64a19.41,19.41,0,0,1-19.4-19.4V29.64a19.41,19.41,0,0,1,19.4-19.4H70.36a19.41,19.41,0,0,1,19.4,19.4Z"/></g></g></svg>