<svg xmlns="http://www.w3.org/2000/svg" viewBox="0 0 137.52 78.88"><defs><style>.cls-1{fill:#e7002d;}.cls-2{fill:#5d1718;}.cls-3{fill:#27e112;}.cls-4{font-size:46.31px;fill:#fff;font-family:Comfortaa-Bold, Comfortaa;font-weight:700;letter-spacing:-0.1em;}.cls-5{letter-spacing:-0.08em;}.cls-6{letter-spacing:-0.06em;}</style></defs><title>Recurso 2</title><g id="Capa_2" data-name="Capa 2"><g id="Capa_2-2" data-name="Capa 2"><path class="cls-1" d="M44.61,32.71c-.89-.47-6.13-3.17-11.28-.72S26.07,40.46,27,41.31c1.12,1,6.41-5.63,10.94-3.92a6.4,6.4,0,0,1,3.66,4.47A6.88,6.88,0,0,1,41,46.28c-2.24,4.85-10.57,9.21-18.46,7.11C17.19,52,12.24,47.62,10.9,42a14.74,14.74,0,0,1,.49-8.21A10.92,10.92,0,0,1,15.52,28a9.25,9.25,0,0,1,6.18-1.62c3.92.53,5.74,4,6.39,3.51s-.58-6.08-4.89-8.83-9.56-1.22-10.64-.89c-6.06,1.87-9,7-9.91,8.74A23,23,0,0,0,.51,44.56,27,27,0,0,0,19,65.07C30.67,68.48,43,63,48.28,54.53c1.07-1.7,5-7.89,2.67-14.43A14.09,14.09,0,0,0,44.61,32.71Z"/><path class="cls-2" d="M30,28.58c.61-.49,1.26-1,1.95-1.49.47-.35.93-.67,1.39-1a22.83,22.83,0,0,0,1.9-6.84A24.47,24.47,0,0,0,31.62,3.91,22.15,22.15,0,0,1,29.38,6a23.4,23.4,0,0,1-5.23,3.3,6.4,6.4,0,0,1,2,.84,7.17,7.17,0,0,1,1.71,1.57c2.14,2.71,2.27,6.49,2.31,7.52a9.69,9.69,0,0,1-.15,3.07,6.87,6.87,0,0,1-1.15,2.24,9.84,9.84,0,0,1,.74,1.77A9.26,9.26,0,0,1,30,28.58Z"/><path class="cls-3" d="M36.93,14.23a10.5,10.5,0,0,1,1.68-5,8.27,8.27,0,0,1,2.9-2.84,8.55,8.55,0,0,1,2.14-.76,37.28,37.28,0,0,1,5.78-.81A9,9,0,0,0,53.59,3.3,22.2,22.2,0,0,0,56.86,0l-.33,5.28a35.4,35.4,0,0,1-.81,6.21c-.66,2.46-2,5.19-3.72,6.3a15,15,0,0,1-5.64,2.37c-2.34.45-2.88.09-4.74-.27a10.2,10.2,0,0,1-2.51-1,3.13,3.13,0,0,0-.73-.13,4.76,4.76,0,0,0-1.53.1,21,21,0,0,0,.08-4.62Z"/><text class="cls-4" transform="translate(52.66 66.09)">G<tspan class="cls-5" x="31.35" y="0">e</tspan><tspan class="cls-6" x="56.41" y="0">a</tspan></text></g></g></svg>