<svg xmlns="http://www.w3.org/2000/svg" viewBox="0 0 96.89 143.76"><defs><style>.cls-1{fill:#fff;}</style></defs><title>Recurso 22</title><g id="Capa_2" data-name="Capa 2"><g id="Capa_6" data-name="Capa 6"><path class="cls-1" d="M4.5,85.6C-.7,97.15-2,111.88,3.74,123.54c3.8,7.76,10.23,13,18.18,16.21a54.34,54.34,0,0,0,25.87,3.72,72.36,72.36,0,0,0,18.07-4.65c6.69-2.54,12.55-6.36,16.9-12.1S90.32,114,89.53,106.6c-.42-4-2.24-7.57-4-11.13a22,22,0,0,1-1.75-4.34c-.38-1.55,0-2.18.76-3.62,1.58-2.79,3.79-5,5.64-7.58A36.59,36.59,0,0,0,95.58,69,25.8,25.8,0,0,0,96.17,55c-1.81-7.31-6.64-14.64-13.45-18.17a19.6,19.6,0,0,0-12.07-1.92c-3.6.55-6.88,2-10.38,2.83a3.37,3.37,0,0,0-.34.09c-.54.16.06,0,.16,0-.11,0-.27.06-.38,0,.71.11.4,0,.23,0,0,0,.61.18.22,0,.15,0,.44.06.2.07.37,0,0,.3.18,0s.19-.87.37-1.28.54-1.11.83-1.64a17.15,17.15,0,0,1,1.76-2.8c1-1.27,2.33-2.25,3.41-3.47a12.58,12.58,0,0,0,2.61-4.87c1-3.36.83-7.73-1.47-10.55a8.23,8.23,0,0,0-5.28-2.69,49,49,0,0,0-7.94-.26c-4,0-8.48-.15-12.66-.5-3.45-.28-6.88-.77-10.33-1.05-2.54-.2-5.25-.24-7.6.88-6.27,3-5.32,12.06-2,17,1.89,2.78,4.8,4.64,6.61,7.51A19.79,19.79,0,0,1,31.4,46.43c-.57,6.22-2.7,11.93-7,16.36-.48.49-1,1-1.47,1.43s-1,.89-1.44,1.3c-1.11,1-2.24,1.89-3.35,2.85a61.46,61.46,0,0,0-7.26,7.08A45.38,45.38,0,0,0,4.5,85.6C3.16,88.49,9,88.33,10,86.13a40.27,40.27,0,0,1,6-9.53,57.65,57.65,0,0,1,6.47-6.27c4.49-3.81,9.08-7.59,11.71-13,3-6.17,4.25-14.27,2.21-20.88A22.16,22.16,0,0,0,30.13,27a16.8,16.8,0,0,1-2.87-3.37,12.76,12.76,0,0,1-1.37-4,11.88,11.88,0,0,1-.23-4.56,4.28,4.28,0,0,1,.71-1.85c.1-.13.24-.23.34-.37.23-.31-.11.11-.18.15s.29-.2.29-.21.53-.25,0,0-.16.1-.06.05c.64-.37-.45.19-.06,0,.11,0,.79-.22.22-.08s.29,0,.46,0l.65,0c.65,0-.36,0,.17,0s1.23.06,1.85.11c3.36.29,6.71.75,10.07,1,4.34.36,8.68.49,13,.5a49.24,49.24,0,0,1,7.15.19l.69.11c-.46-.08-.29-.07,0,0l.51.16c.54.16-.14-.11.1,0l.49.29c.08.05.47.37.23.16s.15.15.21.22.32.39.47.6c1.88,2.7,1.46,7,0,9.76A13,13,0,0,1,60.27,29a19.78,19.78,0,0,0-3.57,4.61c-1,1.67-2.51,4-1.92,6.07A3.35,3.35,0,0,0,58,41.82c3,.23,6.11-1.33,9-2.16,3.32-1,6.63-1.44,9.91-.25a19.31,19.31,0,0,1,8,6c3.73,4.5,6.56,10.76,6.3,16.71A31.64,31.64,0,0,1,85.68,78C84,80.61,81.74,82.81,80,85.42c-.93,1.42-2.08,3.09-2.22,4.84a9,9,0,0,0,.74,4c1.3,3.37,3.22,6.44,4.32,9.89A19.35,19.35,0,0,1,83,115.33a31.29,31.29,0,0,1-7.82,13.11,28.47,28.47,0,0,1-9.93,6.44c-.8.34-1.62.65-2.44,1l-1.4.52c-.13.05-.28.09-.41.15-.33.15.73-.26.23-.08-1,.33-1.93.67-2.92,1a52.18,52.18,0,0,1-8.52,1.91,47.63,47.63,0,0,1-11.81.13,49.86,49.86,0,0,1-12.11-3.19,33.06,33.06,0,0,1-9.3-5.27c-9.66-8-12-21.67-10-33.48A46.19,46.19,0,0,1,10,86.13C11.32,83.22,5.49,83.39,4.5,85.6Z"/><path class="cls-1" d="M31.21,9.29c-1-1.6-1.17-4.11.23-5.55.2-.2.41-.28.61-.45-.23.12-.19.11.1,0-.38.12-.41.14-.1,0,.62-.18-.72,0-.07,0,.42,0,.85-.07,1.27-.09a64.61,64.61,0,0,1,12.51.49c3.2.46,6.88.89,9.71,2.6a5.17,5.17,0,0,1,.86.7,4.87,4.87,0,0,1,.35.42c.15.2,0-.17.11.2.72,1.71.1,3.45-.82,4.95-.68,1.13.6,1.58,1.55,1.6,1.17,0,3.15-.44,3.83-1.56,1.45-2.37,2.54-5.71.26-7.94-2.07-2-5.49-2.72-8.2-3.29a67.14,67.14,0,0,0-11-1.35Q39-.08,35.54.1A18.32,18.32,0,0,0,30.13,1,8.46,8.46,0,0,0,25.24,5a6.53,6.53,0,0,0,.58,6.47c.63,1,3,.34,3.82,0s2.24-1.16,1.57-2.22Z"/><path class="cls-1" d="M83.86,92.2C76.28,85.37,69.51,76.88,66.3,67.06a86.37,86.37,0,0,1-2.24-9.93c-1.22-6.2-2.29-12.43-3.33-18.66-.32-1.95-6.15-.58-5.79,1.55,1.43,8.63,2.83,17.31,4.84,25.83A45.07,45.07,0,0,0,65,78.15,68.63,68.63,0,0,0,78.48,94.47c1,.88,2.75.51,3.83,0,.62-.26,2.54-1.43,1.55-2.32Z"/><path class="cls-1" d="M63,51.88a9.75,9.75,0,0,1,3.14-4.2,7,7,0,0,1,2.11-1.11,7.11,7.11,0,0,1,1.94-.27c3.88,0,6.6,2.63,8.64,5.64,4.12,6.07,4.74,13.93.56,20.15a17.9,17.9,0,0,1-9.82,7.08c-.92.26-2.79,1.06-2.48,2.32s2.49,1,3.31.76c9.89-2.8,18.35-11.13,17.7-22a21.67,21.67,0,0,0-4-10.85,14.15,14.15,0,0,0-12.39-6.55,15.78,15.78,0,0,0-14.47,9.69c-.5,1.27,1.87,1.43,2.53,1.35a3.84,3.84,0,0,0,3.28-2Z"/></g></g></svg>