<svg xmlns="http://www.w3.org/2000/svg" viewBox="0 0 117.62 142.16"><title>Recurso 9</title><g id="Capa_2" data-name="Capa 2"><g id="Capa_4" data-name="Capa 4"><path d="M65,138.7a32.2,32.2,0,0,0-11.93-13.07c-2.34-1.37-4.86-2.29-7.3-3.44a17.19,17.19,0,0,1-2.62-1.55,17.39,17.39,0,0,1-1.77-1.44c.24.22-.11-.11-.16-.16a23.11,23.11,0,0,1-5.52-9.29,21,21,0,0,1,2.17-16.48,19.39,19.39,0,0,1,4.86-5.76,10.55,10.55,0,0,1,2.79-1.63l.13,0c.3-.09.59-.17.9-.24s.88-.19,1.32-.27c5.5-1,11.16-2.33,15.7-5.79a23.24,23.24,0,0,0,8.55-12.65,17.22,17.22,0,0,0,.21-7.32,13.65,13.65,0,0,1,.23-6.62c1.26-4.53,5.23-7.6,5.36-12.53.07-2.69-1.1-5.5-.15-8.13a10.3,10.3,0,0,1,1.37-2.22,11.53,11.53,0,0,0,1.73-4.3c.41-2.13-.37-4.07,1-6a6.53,6.53,0,0,1,5-2.68,5,5,0,0,1,2.43,1,10.83,10.83,0,0,0,3.77,1.55c3.13.5,5.6-.82,8-2.68a3.78,3.78,0,0,1,1.13-.68c-.26.11.6-.12.13-.05a6.63,6.63,0,0,1,1-.07,8.54,8.54,0,0,1,3,.91,9.71,9.71,0,0,1,4.75,5.67,9.06,9.06,0,0,1,.1,6s-.36.74-.12.27c-.1.2-.57.46-.09.14.15-.1-.15.14-.28.11l.15-.06-1,.38c-1.4.61-2.94,1.94-2.46,3.67.33,1.16,1.48,1.8,2.29,2.58a5.38,5.38,0,0,1,1.54,3,13.59,13.59,0,0,1-.49,5.7c-.14.57.15-.43,0,0l-.09.27a14.33,14.33,0,0,1-.55,1.36,11.27,11.27,0,0,1-2.07,3,14.43,14.43,0,0,1-2.24,1.85,12.64,12.64,0,0,1-2.06,1.17c-.64.32-1.31.6-2,.87s.65-.22,0,0a18,18,0,0,1-2.58.74c-.17,0-.92.11-1.29.13L97,54h-.11c-1.22-.05-2.44-.17-3.66-.12A12.82,12.82,0,0,0,82.35,60.8a32.62,32.62,0,0,1-8.19,9.72,27.14,27.14,0,0,1-2.4,1.73,11.76,11.76,0,0,1-3.4,1.49,5.81,5.81,0,0,1-1.25.15,6.27,6.27,0,0,1-1.66-.23c-.38-.1.41.21,0,0s.24.12-.19-.1a1.82,1.82,0,0,1-.35-.27c.47.39.09.09,0,0-.92-1.36-1.67-2.8-2.49-4.23a39.88,39.88,0,0,0-4.86-6.7A58.44,58.44,0,0,0,51,55.74a27.41,27.41,0,0,0-7.93-4.4,33.41,33.41,0,0,0-3.94-1.12c-1.2-.28-1.45-.29-2.47-.6a4.23,4.23,0,0,1-1.85-.91,7.74,7.74,0,0,1-2.35-2.93c-1.1-2.4-1.23-4.92-3.29-6.82a9.15,9.15,0,0,0-4.43-2.2c-1.38-.28-3-.07-4.07-.29-1.79-.36-1.45-3-1.38-4.59.12-2.86-.38-5.86-2.34-8.07-1.58-1.78-3.87-2.66-5.52-4.38A27.13,27.13,0,0,1,9,16.57a16.88,16.88,0,0,1-2.91-5.65,6.1,6.1,0,0,1-.18-2.51A4.12,4.12,0,0,1,7,6.32a8.29,8.29,0,0,1,5.22-2,10.77,10.77,0,0,1,6,1.09C20.42,6.63,22.39,7.8,25,8a14.84,14.84,0,0,0,8.22-2.08c.34-.19.71-.35,1-.54.67-.37-.6.29.07,0-.47.21-.44,0-.16,0-.41,0-.56-.22-.29,0a3.67,3.67,0,0,0,.48.26,4.64,4.64,0,0,1,1.11,1.1c1.59,2.11,2.26,4.84,3,7.34a35.29,35.29,0,0,1,1.19,7.77,15.39,15.39,0,0,0,.92,5.6,11.24,11.24,0,0,0,5,5.55c1,.5,1.83.9,2.74,1.45a16.26,16.26,0,0,1,1.87,1.33,5.31,5.31,0,0,1,.92.85,9.66,9.66,0,0,1,2.22,3.76,36,36,0,0,1,1.18,5.43c1,5.79,2.15,11.46,3.64,17.13,1.27,4.83,2.63,9.76,5.23,14.08a22.66,22.66,0,0,0,11.07,9.37,24.67,24.67,0,0,1,6.27,3.07,25.23,25.23,0,0,1,3.9,3.9c3.1,3.76,5.35,8.42,4.85,13.39a15.73,15.73,0,0,1-2.47,6.9,22.45,22.45,0,0,1-2.16,2.8c-.33.37-.67.73-1,1.09l-.6.6-.39.38c.18-.17.16-.15-.07.06a30.52,30.52,0,0,1-5.19,4,73.82,73.82,0,0,0-6.78,3.94,38.26,38.26,0,0,0-11.13,13.08c-.68,1.28.62,2.33,1.78,2.48a3.8,3.8,0,0,0,3.77-1.79c2.63-4.92,6.62-9.64,11.35-12.3a60.16,60.16,0,0,0,7.05-4.17,43.9,43.9,0,0,0,5.27-4.75c3.88-4,6.77-9.35,6.52-15.1a22.84,22.84,0,0,0-6-13.73,26.4,26.4,0,0,0-5.2-4.82,36.55,36.55,0,0,0-6.76-3.1,19.44,19.44,0,0,1-9.86-9.79C65.19,67.64,64,62.1,62.69,56.83s-1.9-10.62-3.08-15.89A14.8,14.8,0,0,0,53,31.28c-2-1.24-4.19-1.81-5.66-3.7a9.51,9.51,0,0,1-1.86-5.23C45.14,16.7,44.41,11,41.78,5.91c-1.24-2.41-3.34-4.55-6.18-4.8C33,.87,31.13,2.28,28.92,3.28c0,0-.91.32-.36.15a5,5,0,0,1-.78.2c-.56.1.65,0-.42,0a4.07,4.07,0,0,1-.78,0,6.27,6.27,0,0,1-2.68-.9A18,18,0,0,0,16.1.06c-5.31-.37-12,1-15,5.87-2.7,4.33-.06,9.56,2.6,13.21a28.74,28.74,0,0,0,2.71,3.21,20.83,20.83,0,0,0,3.48,2.8,7.06,7.06,0,0,1,2.15,1.78c1.69,2.34,1.19,4.91,1.23,7.59a5.86,5.86,0,0,0,4.75,6.09c2.61.56,5.39-.43,7.05,2.37A14.16,14.16,0,0,1,26.17,46a12.23,12.23,0,0,0,2.19,4.18c3.41,4,8.51,3.8,12.92,5.7a23.79,23.79,0,0,1,7,4.81,58.08,58.08,0,0,1,6.6,7.5,54.11,54.11,0,0,1,3.45,5.71,7.41,7.41,0,0,0,3.18,3.41C67.08,80,73.71,76.68,78,73.21a37.47,37.47,0,0,0,9.67-11.33c.17-.32.34-.63.52-.94s.2-.36.31-.53c-.31.5,0-.06.1-.13l.38-.46s.47-.5.18-.21.22-.19.23-.19a6.88,6.88,0,0,1,.78-.55c-.57.35,1.3-.57.85-.41.19-.07.39-.1.57-.17.8-.27-.49,0,.31-.07l.78-.06c.07,0,.93,0,.29,0l1.6.09c9.11.43,19.67-4.92,22.08-14.26a15.67,15.67,0,0,0,.36-6.64A8.26,8.26,0,0,0,115.59,34a11.65,11.65,0,0,0-1.72-1.72c-.06-.05-.46-.41-.53-.45-.16-.24-.2-.27-.14-.08a1.7,1.7,0,0,1-1.12,1.51l-.1,0c.35-.12.7-.24,1-.38s.62-.25.93-.41A6.39,6.39,0,0,0,115.84,31a7.66,7.66,0,0,0,1.52-3.28,12.61,12.61,0,0,0-.79-7.45c-2.4-5.75-8.95-9.58-15.16-8a11.08,11.08,0,0,0-4.18,2.07c-.45.36-.87.75-1.34,1.09.42-.31-.32.09,0,0a4.72,4.72,0,0,0-.54,0c.42,0-.44-.18,0,0a7.28,7.28,0,0,1-.77-.31l-.89-.52a11.55,11.55,0,0,0-4.31-1.68c-5.63-.77-13.37,3.34-14.15,9.43-.13,1,.08,2,0,3A7.27,7.27,0,0,1,73.84,29a10.68,10.68,0,0,0-2.2,7.92c.27,2.44.79,4.78-.26,7-1,2.09-2.45,3.72-3.48,6a17.84,17.84,0,0,0-1.76,8.27c.13,2,.76,3.95.63,6a18,18,0,0,1-7,12.71C55.61,80,50.36,80.4,45.49,81.56,39.58,83,35,87.75,32.16,92.92a24.2,24.2,0,0,0-2.43,17.7,25.69,25.69,0,0,0,6.06,10.83,20.12,20.12,0,0,0,4.94,3.82c2.35,1.26,4.91,2.08,7.24,3.36a29.52,29.52,0,0,1,11.75,12.64c.65,1.27,2.93.94,3.94.45C64.88,141.13,65.68,140,65,138.7Z"/></g></g></svg>