<svg xmlns="http://www.w3.org/2000/svg" viewBox="0 0 119.89 123.71"><defs><style>.cls-1{fill:#fff;}</style></defs><title>Recurso 25</title><g id="Capa_2" data-name="Capa 2"><g id="Capa_8" data-name="Capa 8"><path class="cls-1" d="M44.6,54.59c3.43-4.82,6.94-10,8.85-15.61a28.15,28.15,0,0,0,.9-12.31c-.75-6.11-2.3-12.57-7.79-16.14-6-3.87-14.51-3.46-19.33,2.12a22.13,22.13,0,0,0-4.68,11.44,46.65,46.65,0,0,1-.62,5.28,27.55,27.55,0,0,1-3.67,8.3,28.5,28.5,0,0,1-7.69,8A25.32,25.32,0,0,0,3.92,52C1.69,55.14-.3,58.33,0,62.34a14.63,14.63,0,0,0,4.58,9c6.4,6.17,15.6,4.5,22.74.62a36.17,36.17,0,0,0,7.48-5.12A51.43,51.43,0,0,0,41,59.62c1.22-1.66,2.41-3.35,3.61-5,.73-1-.64-1.17-1.42-1.14-1.09.06-3.15.44-3.86,1.44-3.42,4.8-6.79,10.31-11.63,13.83a26.91,26.91,0,0,1-7.07,3.83c-3.13,1-6.42,0-9-1.89A14.37,14.37,0,0,1,6.21,62.9c-1-3.51,0-6.68,1.94-9.66a22.42,22.42,0,0,1,5.91-6.47,35.18,35.18,0,0,0,7-6c3.43-4,6.32-9,7-14.32.2-1.5.15-3,.43-4.49a27.33,27.33,0,0,1,1.59-5.41A12.72,12.72,0,0,1,33.89,11c.14-.11.5-.34.53-.36s.73-.26.3-.15a3.46,3.46,0,0,1,1,0A11,11,0,0,1,40,11.9a13.86,13.86,0,0,1,5.53,5.26,25.25,25.25,0,0,1,2.65,8.45c.7,4.23,1.07,8.71,0,12.92s-3.32,8-5.57,11.53c-1,1.64-2.12,3.25-3.24,4.83-.73,1,.64,1.17,1.42,1.14C41.83,56,43.89,55.59,44.6,54.59Z"/><path class="cls-1" d="M76.24,46.63c-10.15-11-13.67-29.42-2.95-41.28A13.54,13.54,0,0,1,75.17,3.6,8.47,8.47,0,0,1,76,3.06c.18-.11.38-.2.57-.3-.28.15.56-.18.09,0a4.11,4.11,0,0,1,1.72-.07,9.69,9.69,0,0,1,3.22,1.1c3.32,1.83,6.5,5.57,6.19,9.59a30.62,30.62,0,0,1-1,4.32,17.23,17.23,0,0,0-.32,5.86A21.15,21.15,0,0,0,88.36,30c.66,1.39,1.48,2.68,2.15,4.06a4.4,4.4,0,0,1,.57,3.31,3.37,3.37,0,0,1-.32.73,2.76,2.76,0,0,1-.41.46c.16-.2-.38.18-.07,0s-.22.08-.29.1-.7.25-.2.08L89,39c-4.61,1.45-9.05,3.65-11.87,7.74-2.47,3.58-3.9,7.75-6.42,11.31a46.51,46.51,0,0,1-9.3,9.55,101.07,101.07,0,0,1-9.59,6.84c-.43.27,0,0-.58.34-.26.16-.53.31-.8.46q-.9.51-1.8,1c-1.31.7-2.62,1.4-3.92,2.12-3.84,2.13-7.55,4.47-11.17,7-3,2.07-6.4,4.22-8.77,7.06-5.08,6.08-1.77,15,2.3,20.61A26,26,0,0,0,46.93,123.7a35.55,35.55,0,0,0,13.86-2.78,70.2,70.2,0,0,0,7-2.91c1.83-.94,3.33-2.38,5.15-3.35a44,44,0,0,1,4.94-2.13,10,10,0,0,0,3.81-2.13c2.31-2.41.26-6.24-1.47-8.32-3.15-3.79-7.77-4.49-12.39-3.42a23.73,23.73,0,0,0-6,2.3c-.58.31-1.15.63-1.7,1,.84-.55-.19.06-.47.21-.64.35-1.28.72-1.91,1.11s-1.46,1-2.2,1.41c-.08,0-.45.26-.76.42a1.66,1.66,0,0,1-.46.18,9.1,9.1,0,0,1-2.26.51,7.65,7.65,0,0,1-3.12-.35c-1.77-.57-3-1.83-4.55-2.75a7.68,7.68,0,0,0-6.33-.24c-2.19.71-7,3.59-4.33,6.24a17.22,17.22,0,0,0,4.8,2.8,34.77,34.77,0,0,0,5.95,2.4A23,23,0,0,0,56,113.65,19.18,19.18,0,0,0,63.44,110c1.42-1.18,2.36-2.74,3.88-3.8l.41-.27c-.06,0-.51.28-.09.06.26-.14.53-.29.8-.42a10.85,10.85,0,0,1,1.86-.68,12.46,12.46,0,0,1,6.08.39,17.52,17.52,0,0,0,6.9.66,20.57,20.57,0,0,0,7.46-2.64,27,27,0,0,0,8.13-7.52A43.07,43.07,0,0,1,106,88.33a38.46,38.46,0,0,0,7.1-8.41,39.55,39.55,0,0,0,5.54-12,35.45,35.45,0,0,0,1.22-10.85,28,28,0,0,0-3.63-12.84,15.54,15.54,0,0,0-10.34-7.11,6.4,6.4,0,0,0-4.07.68c-.48.26-2,1.46-.65,1.74A14,14,0,0,1,111.1,47a29.86,29.86,0,0,1,3,12.65c.14,7.8-2.73,15.34-7.1,21.7a35.46,35.46,0,0,1-6.35,7.25,43.19,43.19,0,0,0-7.23,7.63C91.39,99,89,101.59,85.9,103a6,6,0,0,1-4.3,0,24.08,24.08,0,0,0-7-1,23.07,23.07,0,0,0-11.82,3.76c-1.6,1.08-2.58,2.53-3.93,3.83a8.46,8.46,0,0,1-4.74,2.14,13.1,13.1,0,0,1-3.48,0,17.53,17.53,0,0,1-5-1.58,30.89,30.89,0,0,1-5.77-3c-.61-.45-1.09-.75-1.13-1.34-.06-.79.64-1.06,1-1.6s-1.27.64-1.41.24c0,0,.85.37.89.4a28.94,28.94,0,0,0,4.34,2.71c4.38,1.79,10,.69,14.17-1.2a50,50,0,0,0,4.57-2.72c.76-.44,1.55-.82,2.3-1.27.23-.14.4-.23,0,0,.33-.18.65-.37,1-.54a6.21,6.21,0,0,1,3.63-1,7.75,7.75,0,0,1,4.78,2.5,10,10,0,0,1,2.69,4.46,4.57,4.57,0,0,1,.15,1.91c-.12.7-.33.71-.55,1.11.08-.15.34-.22.18-.16-.35.13.49-.17-.18.09s-1.38.51-2.07.78a41.08,41.08,0,0,0-6.47,3.14,37.07,37.07,0,0,1-4.15,2.68c-2.24.92-4.47,1.87-6.76,2.66A19,19,0,0,1,52.22,121a16.31,16.31,0,0,1-4.78-.32A25,25,0,0,1,30,106.59c-1.78-3.84-2.74-8.37-1.12-12.43a11.18,11.18,0,0,1,3.78-4.5,126,126,0,0,1,19.4-12.37A89.12,89.12,0,0,0,69.82,64.75a43.75,43.75,0,0,0,8.59-10.66c1.94-3.37,3.21-7.27,6.08-10a13.85,13.85,0,0,1,5-2.91,19.59,19.59,0,0,0,5.36-2.25C97.41,37.08,97.37,34.5,96,32c-1.8-3.43-3.51-6.67-3.85-10.62a16.1,16.1,0,0,1,.53-5.44,21.28,21.28,0,0,0,.84-4.26C93.72,7.89,91,4.3,88,2.28A14.54,14.54,0,0,0,74.51,1.1a18.54,18.54,0,0,0-8.59,7.21,26.73,26.73,0,0,0-4.69,11.43,34.82,34.82,0,0,0,4.68,22.43,39.36,39.36,0,0,0,4.89,6.52c1.09,1.18,6.53-.88,5.44-2.06Z"/></g></g></svg>