<svg xmlns="http://www.w3.org/2000/svg" viewBox="0 0 100.82 121.55"><title>Recurso 3</title><g id="Capa_2" data-name="Capa 2"><g id="Capa_3" data-name="Capa 3"><path d="M5.84,103.27a7.4,7.4,0,0,1,0-1.88c.08-1.38.23-2.85.44-4.48A79.21,79.21,0,0,1,9.55,82.48a54.13,54.13,0,0,1,8.16-16.15,36.93,36.93,0,0,1,6.6-6.73,29.76,29.76,0,0,1,3.83-2.54c.67-.37,1.36-.72,2.06-1.05a1.51,1.51,0,0,1,.29-.13l.49-.2c.49-.21,1-.4,1.49-.58l.51-.17c.84-.31-.59.16.27-.1l1.2-.34,1.22-.31s1-.2.34-.08l.85-.16c2.44-.44,4.39-.53,7-.9A64.89,64.89,0,0,0,58,49.44C63.9,47.13,69.68,43.62,73.3,38.3a20.71,20.71,0,0,0,3.6-13.59A32,32,0,0,0,73.29,12.1,22.09,22.09,0,0,0,58.72.88C50.34-1,40.54.17,33.19,4.75a23.07,23.07,0,0,0-9.75,13.31C22,22.93,21.59,28,23.34,32.8a29.3,29.3,0,0,0,8,11.62c5.85,5.23,13.47,7.92,21.12,9.08,4,.61,7.88.59,11.7,1.85a29.44,29.44,0,0,1,8.52,4.56A46.69,46.69,0,0,1,84.88,74.73a94.34,94.34,0,0,1,9.85,28.4c.1.56.2,1.13.29,1.69l1.18-1.33c-3.69,2.1-7.52,4-11.36,5.79A120.66,120.66,0,0,1,62,117.68c-1,.24-1.32.31-2.47.52s-2,.34-3,.46c-.61.08-1.51.16-2.46.2l-1.39,0c-.07,0-.47,0-.07,0l-.72,0A52.4,52.4,0,0,1,41.23,117a166,166,0,0,1-22.87-8.17C14,107,9.58,105,5.3,102.82c-1.11-.56-3.07.14-4.07.67-.76.4-1.78,1.2-.64,1.78A193.66,193.66,0,0,0,35,119.05a68,68,0,0,0,11.64,2.34,43.47,43.47,0,0,0,12.15-.72c9-1.71,17.74-5,26.13-8.77,5-2.23,9.92-4.61,14.67-7.3.45-.26,1.28-.68,1.18-1.33a93.89,93.89,0,0,0-6-21.32c-4.69-11.63-12.16-23.51-24.26-28.4A36.34,36.34,0,0,0,59.9,51.31,48.16,48.16,0,0,1,47,48.48,31.13,31.13,0,0,1,32.33,37.4,21.54,21.54,0,0,1,28,23.86a28.14,28.14,0,0,1,3.57-12.43,16.68,16.68,0,0,1,8.93-7.54c.14-.05.71-.24.13-.05l.52-.16c.45-.13.9-.24,1.36-.36.89-.22-.33.06.22,0l.73-.14c.51-.09,1-.16,1.53-.22C51.76,2.14,59.17,3.8,64.14,9a26.78,26.78,0,0,1,6.46,13.6,33.66,33.66,0,0,1,.6,5.66,10.25,10.25,0,0,1-.14,2.33,20.05,20.05,0,0,1-4.38,9.7,23.63,23.63,0,0,1-5.94,5.07,34.65,34.65,0,0,1-9.5,3.87c-4.36,1.15-9.09,1.36-13.69,2.23a41.42,41.42,0,0,0-20.21,9.74A46.27,46.27,0,0,0,6.55,76.38,73.9,73.9,0,0,0,.08,103.11a7.53,7.53,0,0,0,0,1.71C.35,106.32,6.18,104.93,5.84,103.27Z"/></g></g></svg>