<svg xmlns="http://www.w3.org/2000/svg" viewBox="0 0 95.03 99.2"><defs><style>.cls-1{fill:#fff;}</style></defs><title>Recurso 13</title><g id="Capa_2" data-name="Capa 2"><g id="Capa_3" data-name="Capa 3"><g id="Capa_5" data-name="Capa 5"><path class="cls-1" d="M93,89.41c4.41-7.27,1.06-16.66-4.66-22.16C81.5,60.69,71.78,57.93,63.1,54.76,58.05,52.91,53,51.13,48,49.18a62.23,62.23,0,0,1-13.24-6.66c-6.81-4.75-12.54-12.18-12.1-20.87.35-7,4.65-14.21,10.87-17.52a11.35,11.35,0,0,1,3.86-1.34A14.48,14.48,0,0,1,42.29,3a21.36,21.36,0,0,1,10.1,5.37,20.61,20.61,0,0,1,5.93,21.74C55.41,38.84,48,44.83,39.94,48.72c-8.35,4-17.64,5.87-25.52,10.87a26.83,26.83,0,0,0-9,9.33A41.86,41.86,0,0,0,1.11,81.46C.68,83.63.33,85.81,0,88c-.13.87,1.06.91,1.66.87A212.5,212.5,0,0,1,62,94.38q8.37,2,16.56,4.66a5.76,5.76,0,0,0,4.07-.67c.6-.31,1.92-1.35.64-1.77A218.67,218.67,0,0,0,21.92,86q-8.91-.24-17.83.21l1.66.87c1.3-8.79,3-18.7,10.13-24.82,3.29-2.83,7.31-4.58,11.32-6.09C31.71,54.47,36.3,53,40.71,51c8.87-3.92,17.46-9.56,21.93-18.47A22.63,22.63,0,0,0,65.1,20,21.84,21.84,0,0,0,60.44,9.11,23.52,23.52,0,0,0,38.33.28a25.93,25.93,0,0,0-19.22,14,22.23,22.23,0,0,0-2.27,11A22.36,22.36,0,0,0,21.39,37c5.87,8.07,15.33,12.21,24.4,15.59,5.28,2,10.59,3.87,15.88,5.81a106.65,106.65,0,0,1,13.57,5.54C82.89,68,90,75.28,89.17,84.63a13.28,13.28,0,0,1-1.92,5.7c-.61,1,2.06.85,2.39.8,1.18-.19,2.7-.63,3.36-1.72Z"/></g></g></g></svg>