<svg xmlns="http://www.w3.org/2000/svg" viewBox="0 0 85 85"><defs><style>.cls-1{fill:#fff;}</style></defs><title>Recurso 4</title><g id="Capa_2" data-name="Capa 2"><g id="Capa_1-2" data-name="Capa 1"><path class="cls-1" d="M48.51,40.65l-9.28-4.79a1.13,1.13,0,0,0-1.65,1v9.6a1.13,1.13,0,0,0,1.65,1l9.28-4.79A1.14,1.14,0,0,0,48.51,40.65Z"/><path class="cls-1" d="M42.5,0A42.5,42.5,0,1,0,85,42.5,42.5,42.5,0,0,0,42.5,0ZM66.3,52a6.82,6.82,0,0,1-6.8,6.8h-34A6.82,6.82,0,0,1,18.7,52V33a6.82,6.82,0,0,1,6.8-6.8h34A6.82,6.82,0,0,1,66.3,33Z"/></g></g></svg>